# xmcd
#
# Track frame offsets: 
#        150
#        18468
#        33392
#        48280
#        66143
#        84293
#
# Disc length: 1326 seconds
#
# Revision: 0
# Processed by: cddbd v1.5.2PL0 Copyright (c) Steve Scherf et al.
# Submitted via: ExactAudioCopy v0.99pb4
#
DISCID=40052c06
DTITLE=Joel Harries - Aloft EP
DYEAR=2011
DGENRE=Folk
TTITLE0=Little Gestures
TTITLE1=Voice
TTITLE2=Sick
TTITLE3=Almost Home
TTITLE4=Slip Away
TTITLE5=Fading Light
EXTD=
EXTT0=
EXTT1=
EXTT2=
EXTT3=
EXTT4=
EXTT5=
PLAYORDER=
